# 3ds Max Wavefront OBJ Exporter v0.99 - (c)2007 guruware
# File Created: 01.03.2026 07:51:33

mtllib scoutship 2.mtl

#
# object Box001
#

v  -19.5943 11.0072 69.5953
v  -22.4761 8.2554 34.6239
v  0.4612 8.2554 42.1173
v  0.4612 11.0072 79.5864
v  -19.5943 18.3779 69.5953
v  0.4612 18.3779 79.5864
v  0.4612 28.3163 42.1173
v  -22.4761 28.3163 34.6239
v  20.5166 11.0072 69.5953
v  23.3984 8.2554 34.6239
v  23.3984 28.3163 34.6239
v  20.5166 18.3779 69.5953
v  34.9084 1.2308 -462.3635
v  1.6920 1.2308 -462.3635
v  1.6920 32.7314 -462.3635
v  34.9084 32.7314 -462.3635
v  -276.7426 9.5474 -147.8008
v  -267.5911 10.8195 -90.6517
v  -267.5911 25.4077 -90.6517
v  -276.7426 25.2477 -147.8008
v  0.4612 0.0000 -165.9290
v  70.4069 0.0000 -165.9290
v  61.2554 2.7518 -71.5375
v  0.4612 2.7518 -69.0397
v  -0.7697 1.2308 -462.3635
v  -33.9861 1.2308 -462.3635
v  -33.9861 32.7314 -462.3635
v  -0.7697 32.7314 -462.3635
v  -25.3580 5.5036 -0.3474
v  -60.3331 2.7518 -71.5375
v  0.4612 5.5036 4.6482
v  0.4612 40.5010 4.6482
v  0.4612 41.9294 -69.0397
v  -60.3331 41.9294 -71.5375
v  -25.3580 40.5010 -0.3474
v  26.2803 5.5036 -0.3474
v  61.2554 41.9294 -71.5375
v  26.2803 40.5010 -0.3474
v  -69.4846 0.0000 -165.9290
v  -0.5394 44.5326 -70.0527
v  -0.5394 45.5721 -164.9002
v  -68.3835 45.5726 -164.9002
v  -59.4223 44.5322 -72.4720
v  286.1877 11.8485 -93.0270
v  295.3391 10.7651 -145.7724
v  295.3391 24.1362 -145.7724
v  286.1877 24.2725 -93.0270
v  60.3446 44.5322 -72.4720
v  69.3058 45.5726 -164.9002
v  1.4617 45.5721 -164.9002
v  1.4617 44.5326 -70.0527
v  -39.7046 0.0000 -261.0124
v  0.4612 0.0000 -261.0124
v  -69.4846 42.9915 -165.9290
v  -39.7046 33.9623 -261.0124
v  0.4612 42.9915 -165.9290
v  0.4612 33.9623 -261.0124
v  70.4069 42.9915 -165.9290
v  40.6269 33.9623 -261.0124
v  40.6269 0.0000 -261.0124
v  -30.5941 0.0000 -324.2616
v  0.4612 0.0000 -324.2616
v  -30.5941 33.9623 -324.2616
v  0.4612 33.9623 -324.2616
v  31.5164 33.9623 -324.2616
v  31.5164 0.0000 -324.2616
v  -51.0693 0.0000 -377.8665
v  0.4612 0.0000 -377.8665
v  -51.0693 33.9623 -377.8665
v  0.4612 33.9623 -377.8665
v  51.9916 33.9623 -377.8665
v  51.9916 0.0000 -377.8665
v  -51.0693 0.0000 -462.9656
v  0.4612 0.0000 -462.9656
v  -51.0693 33.9623 -462.9656
v  0.4612 33.9623 -462.9656
v  51.9916 33.9623 -462.9656
v  51.9916 0.0000 -462.9656
v  -35.2169 0.0000 -472.9656
v  0.4612 0.0000 -472.9656
v  -35.2169 33.9623 -472.9656
v  0.4612 33.9623 -472.9656
v  36.1392 33.9623 -472.9656
v  36.1392 0.0000 -472.9656
v  -150.1187 33.9623 -156.8649
v  -140.9672 34.3083 -81.0946
v  -71.1173 39.8238 -155.0765
v  -71.1173 2.8348 -155.0765
v  -146.1173 2.8348 -146.6458
v  -146.1173 31.4254 -146.6458
v  -140.9672 2.7518 -81.0946
v  -150.1187 0.0000 -156.8649
v  153.7108 0.0000 -155.8507
v  144.5593 2.7518 -82.2822
v  71.9478 2.8348 -155.0631
v  71.9478 39.8353 -155.0631
v  149.6231 31.4161 -145.6658
v  149.6231 2.8348 -145.6658
v  144.5593 34.3083 -82.2822
v  153.7108 33.9623 -155.8507
v  -20.5706 27.9186 33.0819
v  -1.5161 27.9654 39.3157
v  -1.5146 39.3844 6.1780
v  -23.1335 39.4295 2.0035
v  2.4384 27.9654 39.3157
v  21.4929 27.9186 33.0819
v  24.0558 39.4295 2.0035
v  2.4370 39.3844 6.1780
v  -0.5383 28.5112 40.7588
v  -21.5342 28.4878 33.8952
v  -0.5376 40.3131 5.4554
v  -24.2566 40.3356 0.8703
v  22.4565 28.4878 33.8952
v  1.4606 28.5112 40.7588
v  25.1789 40.3356 0.8703
v  1.4599 40.3131 5.4554
v  -0.5388 42.9802 -164.9290
v  -0.5388 41.9407 -70.0815
v  -68.3829 42.9807 -164.9290
v  -59.4218 41.9403 -72.5008
v  69.3052 42.9807 -164.9290
v  60.3441 41.9403 -72.5008
v  1.4612 42.9802 -164.9290
v  1.4612 41.9407 -70.0815
v  -72.3016 2.8348 -165.6123
v  -72.3016 39.8238 -165.6123
v  -147.3016 2.8348 -157.1816
v  -147.3016 31.4254 -157.1816
v  73.2212 39.8353 -165.5885
v  73.2212 2.8348 -165.5885
v  150.8965 31.4161 -156.1912
v  150.8965 2.8348 -156.1912
v  1.6920 1.2308 -472.9656
v  34.9084 1.2308 -472.9656
v  1.6920 32.7314 -472.9656
v  34.9084 32.7314 -472.9656
v  -33.9861 1.2308 -472.9656
v  -0.7697 1.2308 -472.9656
v  -33.9861 32.7314 -472.9656
v  -0.7697 32.7314 -472.9656
# 140 vertices

vn -0.6670 -0.5777 0.4705
vn -0.7117 -0.6933 0.1132
vn -0.0000 -0.9973 0.0732
vn 0.0000 -0.5969 0.8023
vn -0.6960 0.4878 0.5270
vn 0.0000 0.5377 0.8432
vn 0.0000 0.9675 0.2530
vn -0.7138 0.6603 0.2335
vn 0.6670 -0.5777 0.4705
vn 0.7117 -0.6933 0.1132
vn 0.7138 0.6603 0.2335
vn 0.6960 0.4878 0.5270
vn -0.5774 0.5774 -0.5774
vn 0.5774 0.5774 -0.5774
vn 0.5774 -0.5774 -0.5774
vn -0.5774 -0.5774 -0.5774
vn -0.6593 -0.5563 -0.5059
vn -0.5657 -0.5605 0.6049
vn -0.5666 0.5668 0.5981
vn -0.6595 0.5509 -0.5115
vn 0.0000 -0.9999 0.0142
vn 0.3366 -0.8578 -0.3884
vn 0.3168 -0.8227 0.4721
vn -0.0000 -0.9995 0.0330
vn -0.6299 -0.7453 0.2184
vn -0.3132 -0.8240 0.4721
vn 0.0000 -0.9983 0.0575
vn -0.0000 0.9890 0.1480
vn -0.0000 0.9999 0.0154
vn -0.3407 0.8282 0.4450
vn -0.6127 0.7481 0.2550
vn 0.6299 -0.7453 0.2184
vn 0.3431 0.8269 0.4455
vn 0.6127 0.7481 0.2550
vn -0.3338 -0.8589 -0.3884
vn 0.5662 0.5689 0.5965
vn 0.5773 0.5838 -0.5709
vn -0.6071 0.5786 -0.5447
vn -0.5575 0.5781 0.5958
vn 0.5617 -0.5615 0.6076
vn 0.6630 -0.5550 -0.5025
vn 0.6630 0.5502 -0.5076
vn 0.5628 0.5671 0.6014
vn 0.5575 0.5781 0.5958
vn 0.6071 0.5786 -0.5447
vn -0.5773 0.5838 -0.5709
vn -0.5662 0.5689 0.5965
vn -0.6710 -0.7256 -0.1524
vn 0.0000 -1.0000 -0.0000
vn -0.3474 0.8524 -0.3908
vn -0.6771 0.7100 -0.1935
vn 0.0000 0.9991 -0.0418
vn 0.0000 0.9989 -0.0473
vn 0.3489 0.8514 -0.3916
vn 0.6771 0.7100 -0.1935
vn 0.6710 -0.7256 -0.1524
vn -0.6362 -0.7683 0.0708
vn -0.6362 0.7683 0.0708
vn 0.0000 1.0000 -0.0000
vn 0.6362 0.7683 0.0708
vn 0.6362 -0.7683 0.0708
vn -0.7314 -0.6685 0.1349
vn -0.7314 0.6685 0.1349
vn 0.7314 0.6685 0.1349
vn 0.7314 -0.6685 0.1349
vn -0.6919 -0.6129 -0.3816
vn -0.6919 0.6129 -0.3816
vn 0.6919 0.6129 -0.3816
vn 0.6919 -0.6129 -0.3816
vn -0.2111 -0.6496 -0.7304
vn 0.0000 -0.7071 -0.7071
vn -0.2111 0.6496 -0.7304
vn 0.0000 0.7071 -0.7071
vn 0.2111 0.6496 -0.7304
vn 0.2111 -0.6496 -0.7304
vn -0.1283 0.7033 -0.6992
vn -0.1277 0.7018 0.7008
vn -0.6075 -0.6113 -0.5071
vn -0.6382 0.5774 -0.5092
vn 0.5092 0.5775 -0.6381
vn 0.5362 -0.5417 -0.6473
vn -0.0881 -0.7033 0.7054
vn -0.0905 -0.7322 -0.6750
vn 0.0935 -0.7337 -0.6730
vn 0.0919 -0.7040 0.7043
vn 0.6426 0.5773 -0.5038
vn 0.6129 -0.6103 -0.5019
vn -0.5298 -0.5428 -0.6516
vn -0.5038 0.5774 -0.6425
vn 0.1306 0.7034 0.6987
vn 0.1303 0.7048 -0.6973
vn 0.2455 0.9687 0.0371
vn -0.2792 0.9600 -0.0220
vn -0.2807 0.8417 0.4612
vn 0.1059 0.8679 0.4852
vn 0.2792 0.9600 -0.0220
vn -0.2455 0.9687 0.0371
vn -0.1059 0.8679 0.4852
vn 0.2807 0.8417 0.4612
vn -0.2024 0.9626 0.1802
vn 0.1585 0.9777 0.1378
vn -0.0858 0.9371 0.3384
vn -0.0828 0.9436 0.3204
vn -0.1585 0.9777 0.1378
vn 0.2024 0.9626 0.1802
vn 0.0828 0.9436 0.3204
vn 0.0858 0.9371 0.3384
vn 0.3013 0.9079 -0.2914
vn 0.2880 0.9059 0.3104
vn -0.2979 0.9185 -0.2601
vn -0.3162 0.8842 0.3438
vn 0.2979 0.9185 -0.2601
vn 0.3162 0.8842 0.3438
vn -0.3013 0.9079 -0.2914
vn -0.2880 0.9059 0.3104
vn -0.4006 0.3016 -0.8652
vn -0.3664 -0.2969 -0.8818
vn 0.1985 0.3015 -0.9326
vn 0.2362 -0.3023 -0.9235
vn 0.3750 -0.2971 -0.8781
vn 0.4080 0.3016 -0.8618
vn -0.2271 -0.3025 -0.9257
vn -0.1906 0.3016 -0.9342
vn 0.3015 0.3015 -0.9045
vn -0.3015 0.3015 -0.9045
vn 0.3015 -0.3015 -0.9045
vn -0.3015 -0.3015 -0.9045
# 127 vertex normals

vt 0.9409 0.0181 0.0000
vt 0.9399 0.0718 0.0000
vt 0.9063 0.0570 0.0000
vt 0.9120 -0.0000 0.0000
vt 0.4495 0.0181 0.0000
vt 0.4846 0.0000 0.0000
vt 0.4846 0.0678 0.0000
vt 0.4445 0.0814 0.0000
vt 0.4495 0.2415 0.0000
vt 0.4846 0.2415 0.0000
vt 0.4846 0.4033 0.0000
vt 0.4495 0.4033 0.0000
vt 0.0000 0.8008 0.0000
vt 0.1034 0.7883 0.0000
vt 0.1063 0.8478 0.0000
vt 0.0003 0.8229 0.0000
vt 0.2699 0.2792 0.0000
vt 0.2699 0.2793 0.0000
vt 0.2698 0.2794 0.0000
vt 0.4115 0.2095 0.0000
vt 0.3081 0.2374 0.0000
vt 0.3081 0.5575 0.0000
vt 0.4115 0.5540 0.0000
vt 0.8747 0.3727 0.0000
vt 0.7687 0.3621 0.0000
vt 0.7969 0.2203 0.0000
vt 0.8894 0.2257 0.0000
vt 0.5196 0.0181 0.0000
vt 0.5246 0.0814 0.0000
vt 0.5196 0.2415 0.0000
vt 0.5196 0.4033 0.0000
vt 0.2698 0.2795 0.0000
vt 0.2698 0.2796 0.0000
vt 0.2697 0.2797 0.0000
vt 0.2697 0.2795 0.0000
vt 0.9390 0.1254 0.0000
vt 0.9812 0.2387 0.0000
vt 0.9006 0.1139 0.0000
vt 0.4846 0.1356 0.0000
vt 0.4846 0.2690 0.0000
vt 0.3783 0.2735 0.0000
vt 0.4394 0.1447 0.0000
vt 0.2103 0.7738 0.0000
vt 0.4479 0.7489 0.0000
vt 0.4422 0.9099 0.0000
vt 0.2080 0.8796 0.0000
vt 0.1447 0.1208 0.0000
vt 0.0814 0.1811 0.0000
vt 0.0814 0.6213 0.0000
vt 0.1447 0.8887 0.0000
vt 0.8607 0.1176 0.0000
vt 0.8704 0.0648 0.0000
vt 0.5297 0.1447 0.0000
vt 0.5908 0.2735 0.0000
vt 0.0181 0.2415 0.0000
vt 0.0181 0.4033 0.0000
vt 0.8800 0.0121 0.0000
vt 0.2735 0.0604 0.0000
vt 0.2735 0.9201 0.0000
vt 0.9808 0.3833 0.0000
vt 0.4828 0.2708 0.0000
vt 0.4828 0.4425 0.0000
vt 0.3642 0.4425 0.0000
vt 0.3799 0.2752 0.0000
vt 0.5351 0.8269 0.0000
vt 0.6591 0.8626 0.0000
vt 0.6785 0.8813 0.0000
vt 0.5481 0.8520 0.0000
vt 0.5892 0.2752 0.0000
vt 0.6049 0.4425 0.0000
vt 0.4863 0.4425 0.0000
vt 0.4863 0.2708 0.0000
vt 0.0702 0.4733 0.0000
vt 0.0000 0.2205 0.0000
vt 0.2112 0.2920 0.0000
vt 0.2417 0.3310 0.0000
vt 0.4443 0.0000 0.0000
vt 0.4443 0.9434 0.0000
vt 0.6164 0.7452 0.0000
vt 0.6164 0.0000 0.0000
vt 0.3623 0.4443 0.0000
vt 0.4846 0.4443 0.0000
vt 0.4846 0.6164 0.0000
vt 0.4143 0.6164 0.0000
vt 0.6068 0.4443 0.0000
vt 0.5548 0.6164 0.0000
vt 0.5418 0.3384 0.0000
vt 0.3062 0.5549 0.0000
vt 0.3009 0.3163 0.0000
vt 0.3286 0.2668 0.0000
vt 0.2570 0.2898 0.0000
vt 0.2695 0.2925 0.0000
vt 0.7309 0.7452 0.0000
vt 0.7309 0.0000 0.0000
vt 0.4846 0.7309 0.0000
vt 0.4303 0.7309 0.0000
vt 0.5388 0.7309 0.0000
vt 0.2824 0.2825 0.0000
vt 0.2826 0.2689 0.0000
vt 0.2666 0.2842 0.0000
vt 0.2724 0.2829 0.0000
vt 0.8279 0.7452 0.0000
vt 0.8279 0.0000 0.0000
vt 0.4846 0.8279 0.0000
vt 0.3945 0.8279 0.0000
vt 0.5746 0.8279 0.0000
vt 0.2751 0.2774 0.0000
vt 0.2729 0.2745 0.0000
vt 0.2696 0.2804 0.0000
vt 0.2704 0.2796 0.0000
vt 0.9819 0.7452 0.0000
vt 0.9819 0.0000 0.0000
vt 0.4846 0.9819 0.0000
vt 0.3945 0.9819 0.0000
vt 0.5746 0.9819 0.0000
vt 0.2707 0.2786 0.0000
vt 0.2700 0.2784 0.0000
vt 0.2698 0.2797 0.0000
vt 0.2699 0.2794 0.0000
vt 0.2689 0.2802 0.0000
vt 0.2695 0.2797 0.0000
vt 0.4846 1.0000 0.0000
vt 0.4222 1.0000 0.0000
vt 0.5469 1.0000 0.0000
vt 0.2700 0.2791 0.0000
vt 0.2698 0.2791 0.0000
vt 0.2213 0.4279 0.0000
vt 0.2373 0.2908 0.0000
vt 0.0103 0.6434 0.0000
vt 0.0237 0.5497 0.0000
vt 0.0858 0.5461 0.0000
vt 0.0760 0.6063 0.0000
vt 0.0363 0.4633 0.0000
vt 0.3908 0.5894 0.0000
vt 0.3174 0.6180 0.0000
vt 0.1144 0.5427 0.0000
vt 0.3783 0.0604 0.0000
vt 0.3783 0.9201 0.0000
vt 0.2373 0.7528 0.0000
vt 0.2373 0.0604 0.0000
vt 0.8232 0.7526 0.0000
vt 0.7441 0.8317 0.0000
vt 0.5524 0.7875 0.0000
vt 0.8198 0.8095 0.0000
vt 0.8166 0.9033 0.0000
vt 0.7559 0.9165 0.0000
vt 0.7550 0.8544 0.0000
vt 0.7364 0.2929 0.0000
vt 0.7524 0.4261 0.0000
vt 0.5908 0.9201 0.0000
vt 0.5908 0.0604 0.0000
vt 0.7364 0.0604 0.0000
vt 0.7364 0.7528 0.0000
vt 0.7267 0.9212 0.0000
vt 0.9840 0.3124 0.0000
vt 1.0000 0.4079 0.0000
vt 0.9840 0.2600 0.0000
vt 0.9840 0.5326 0.0000
vt 0.0000 0.4115 0.0000
vt 0.0160 0.3081 0.0000
vt 0.1482 0.5879 0.0000
vt 0.1783 0.6044 0.0000
vt 0.0837 0.6297 0.0000
vt 0.2785 0.6402 0.0000
vt 0.0160 0.5575 0.0000
vt 0.0160 0.2374 0.0000
vt 0.4478 0.0842 0.0000
vt 0.4811 0.0729 0.0000
vt 0.4811 0.1329 0.0000
vt 0.4433 0.1404 0.0000
vt 0.4880 0.0729 0.0000
vt 0.5213 0.0842 0.0000
vt 0.5258 0.1404 0.0000
vt 0.4880 0.1329 0.0000
vt 0.4828 0.0703 0.0000
vt 0.4461 0.0827 0.0000
vt 0.4828 0.1342 0.0000
vt 0.4413 0.1425 0.0000
vt 0.5230 0.0827 0.0000
vt 0.4863 0.0703 0.0000
vt 0.5278 0.1425 0.0000
vt 0.4863 0.1342 0.0000
vt 0.5278 0.8851 0.0000
vt 0.4863 0.8846 0.0000
vt 0.4880 0.8642 0.0000
vt 0.5258 0.8652 0.0000
vt 0.1342 0.8846 0.0000
vt 0.0703 0.6256 0.0000
vt 0.0729 0.6136 0.0000
vt 0.1329 0.8642 0.0000
vt 0.4828 0.2709 0.0000
vt 0.4863 0.2709 0.0000
vt 0.6916 0.2286 0.0000
vt 0.6492 0.3724 0.0000
vt 0.6473 0.3690 0.0000
vt 0.6882 0.2301 0.0000
vt 0.5449 0.3429 0.0000
vt 0.5484 0.3415 0.0000
vt 0.4425 0.9431 0.0000
vt 0.2752 0.9203 0.0000
vt 0.2752 0.9772 0.0000
vt 0.4425 1.0000 0.0000
vt 0.3799 0.9203 0.0000
vt 0.4828 0.9203 0.0000
vt 0.4828 0.9772 0.0000
vt 0.3799 0.9772 0.0000
vt 0.7842 0.2602 0.0000
vt 0.7558 0.4050 0.0000
vt 0.7539 0.4018 0.0000
vt 0.7807 0.2618 0.0000
vt 0.6521 0.3732 0.0000
vt 0.6556 0.3717 0.0000
vt 0.2709 0.9203 0.0000
vt 0.2708 0.9772 0.0000
vt 0.4863 0.9203 0.0000
vt 0.5892 0.9203 0.0000
vt 0.5892 0.9772 0.0000
vt 0.4863 0.9772 0.0000
vt 0.0000 0.7017 0.0000
vt 0.0301 0.5038 0.0000
vt 0.0068 0.6677 0.0000
vt 0.1079 0.5460 0.0000
vt 0.0824 0.6244 0.0000
vt 0.8134 1.0000 0.0000
vt 0.8151 0.9578 0.0000
vt 0.8206 0.7848 0.0000
vt 0.7329 0.9174 0.0000
vt 0.7462 0.8368 0.0000
vt 0.4438 0.8739 0.0000
vt 0.4438 0.0622 0.0000
vt 0.4247 0.0622 0.0000
vt 0.4247 0.8739 0.0000
vt 0.3574 0.4438 0.0000
vt 0.2263 0.4285 0.0000
vt 0.2283 0.4094 0.0000
vt 0.3594 0.4247 0.0000
vt 0.4267 0.6894 0.0000
vt 0.4267 0.0622 0.0000
vt 0.4077 0.0622 0.0000
vt 0.4077 0.6894 0.0000
vt 0.7475 0.4267 0.0000
vt 0.6117 0.4437 0.0000
vt 0.6095 0.4247 0.0000
vt 0.7453 0.4077 0.0000
vt 0.2697 0.2794 0.0000
vt 0.2696 0.2797 0.0000
vt 0.5448 1.0000 0.0000
vt 0.4867 1.0000 0.0000
vt 0.4867 0.9808 0.0000
vt 0.5448 0.9808 0.0000
vt 1.0000 0.7182 0.0000
vt 1.0000 0.0270 0.0000
vt 0.9808 0.0270 0.0000
vt 0.9808 0.7182 0.0000
vt 0.4824 1.0000 0.0000
vt 0.4243 1.0000 0.0000
vt 0.4243 0.9808 0.0000
vt 0.4824 0.9808 0.0000
# 258 texture coords

o Box001
g Box001
usemtl wire_115115115
s 2
f 1/1/1 2/2/2 3/3/3 4/4/4 
s 4
f 5/5/5 6/6/6 7/7/7 8/8/8 
s 8
f 1/9/1 4/10/4 6/11/6 5/12/5 
s 16
f 9/13/9 10/14/10 11/15/11 12/16/12 
s 32
f 13/17/13 14/18/14 15/19/15 16/18/16 
s 64
f 17/20/17 18/21/18 19/22/19 20/23/20 
s 2
f 21/24/21 22/25/22 23/26/23 24/27/24 
s 4
f 6/6/6 12/28/12 11/29/11 7/7/7 
s 8
f 4/10/4 9/30/9 12/31/12 6/11/6 
s 32
f 25/32/13 26/33/14 27/34/15 28/35/16 
s 2
f 29/36/25 30/37/26 24/27/24 31/38/27 
s 4
f 32/39/28 33/40/29 34/41/30 35/42/31 
s 16
f 36/43/32 23/44/23 37/45/33 38/46/34 
s 64
f 29/47/25 2/48/2 8/49/8 35/50/31 
s 2
f 36/51/32 10/52/10 3/3/3 31/38/27 
s 4
f 38/53/34 37/54/33 33/40/29 32/39/28 
s 2
f 2/2/2 29/36/25 31/38/27 3/3/3 
s 16
f 10/14/10 36/43/32 38/46/34 11/15/11 
s 64
f 2/48/2 1/55/1 5/56/5 8/49/8 
s 2
f 10/52/10 9/57/9 4/4/4 3/3/3 
s 64
f 30/58/26 29/47/25 35/50/31 34/59/30 
s 2
f 23/26/23 36/51/32 31/38/27 24/27/24 
f 30/37/26 39/60/35 21/24/21 24/27/24 
s 4
f 40/61/36 41/62/37 42/63/38 43/64/39 
s 16
f 44/65/40 45/66/41 46/67/42 47/68/43 
s 4
f 48/69/44 49/70/45 50/71/46 51/72/47 
s off
f 21/73/21 39/74/35 52/75/48 53/76/49 
f 39/77/35 54/78/50 55/79/51 52/80/48 
f 54/81/50 56/82/52 57/83/53 55/84/51 
f 56/82/52 58/85/54 59/86/55 57/83/53 
f 58/87/54 22/88/22 60/89/56 59/90/55 
f 22/88/22 21/73/21 53/76/49 60/89/56 
f 53/76/49 52/75/48 61/91/57 62/92/49 
f 52/80/48 55/79/51 63/93/58 61/94/57 
f 55/84/51 57/83/53 64/95/59 63/96/58 
f 57/83/53 59/86/55 65/97/60 64/95/59 
f 59/90/55 60/89/56 66/98/61 65/99/60 
f 60/89/56 53/76/49 62/92/49 66/98/61 
f 62/92/49 61/91/57 67/100/62 68/101/49 
f 61/94/57 63/93/58 69/102/63 67/103/62 
f 63/96/58 64/95/59 70/104/59 69/105/63 
f 64/95/59 65/97/60 71/106/64 70/104/59 
f 65/99/60 66/98/61 72/107/65 71/108/64 
f 66/98/61 62/92/49 68/101/49 72/107/65 
f 68/101/49 67/100/62 73/109/66 74/110/49 
f 67/103/62 69/102/63 75/111/67 73/112/66 
f 69/105/63 70/104/59 76/113/59 75/114/67 
f 70/104/59 71/106/64 77/115/68 76/113/59 
f 71/108/64 72/107/65 78/116/69 77/117/68 
f 72/107/65 68/101/49 74/110/49 78/116/69 
f 74/110/49 73/109/66 79/118/70 80/119/71 
f 73/109/66 75/120/67 81/121/72 79/118/70 
f 75/114/67 76/113/59 82/122/73 81/123/72 
f 76/113/59 77/115/68 83/124/74 82/122/73 
f 77/117/68 78/116/69 84/125/75 83/126/74 
f 78/116/69 74/110/49 80/119/71 84/125/75 
f 34/41/30 54/81/50 85/127/76 86/128/77 
f 87/129/78 88/130/79 89/131/80 90/132/81 
f 39/133/35 30/134/26 91/135/82 92/136/83 
f 30/137/26 34/138/30 86/139/77 91/140/82 
f 23/44/23 22/141/22 93/142/84 94/143/85 
f 95/144/86 96/145/87 97/146/88 98/147/89 
f 58/85/54 37/54/33 99/148/90 100/149/91 
f 37/150/33 23/151/23 94/152/85 99/153/90 
f 93/142/84 45/66/41 44/65/40 94/143/85 
f 100/154/91 46/67/42 45/66/41 93/142/84 
f 99/148/90 47/155/43 46/156/42 100/149/91 
f 94/152/85 44/157/40 47/158/43 99/153/90 
f 85/127/76 20/159/20 19/160/19 86/128/77 
f 92/136/83 17/161/17 20/162/20 85/163/76 
f 91/135/82 18/164/18 17/161/17 92/136/83 
f 86/139/77 19/165/19 18/166/18 91/140/82 
s 1
f 101/167/92 102/168/93 103/169/94 104/170/95 
f 105/171/96 106/172/97 107/173/98 108/174/99 
s off
f 8/8/8 7/7/7 109/175/100 110/176/101 
f 7/7/7 32/39/28 111/177/102 109/175/100 
f 32/39/28 35/42/31 112/178/103 111/177/102 
f 35/42/31 8/8/8 110/176/101 112/178/103 
f 7/7/7 11/29/11 113/179/104 114/180/105 
f 11/29/11 38/53/34 115/181/106 113/179/104 
f 38/53/34 32/39/28 116/182/107 115/181/106 
f 32/39/28 7/7/7 114/180/105 116/182/107 
f 110/176/101 109/175/100 102/168/93 101/167/92 
f 109/175/100 111/177/102 103/169/94 102/168/93 
f 111/177/102 112/178/103 104/170/95 103/169/94 
f 112/178/103 110/176/101 101/167/92 104/170/95 
f 114/180/105 113/179/104 106/172/97 105/171/96 
f 113/179/104 115/181/106 107/173/98 106/172/97 
f 115/183/106 116/184/107 108/185/99 107/186/98 
f 116/187/107 114/188/105 105/189/96 108/190/99 
f 33/40/29 56/82/52 117/62/108 118/191/109 
f 56/82/52 54/81/50 119/63/110 117/62/108 
f 54/81/50 34/41/30 120/64/111 119/63/110 
f 34/41/30 33/40/29 118/191/109 120/64/111 
f 37/54/33 58/85/54 121/70/112 122/69/113 
f 58/85/54 56/82/52 123/71/114 121/70/112 
f 56/82/52 33/40/29 124/192/115 123/71/114 
f 33/40/29 37/54/33 122/69/113 124/192/115 
f 118/193/109 117/194/108 41/195/37 40/196/36 
f 117/194/108 119/197/110 42/198/38 41/195/37 
f 119/199/110 120/200/111 43/201/39 42/202/38 
f 120/203/111 118/204/109 40/205/36 43/206/39 
f 122/207/113 121/208/112 49/209/45 48/210/44 
f 121/208/112 123/211/114 50/212/46 49/209/45 
f 123/199/114 124/213/115 51/214/47 50/202/46 
f 124/215/115 122/216/113 48/217/44 51/218/47 
f 54/219/50 39/133/35 125/220/116 126/221/117 
f 39/133/35 92/136/83 127/222/118 125/220/116 
f 92/136/83 85/163/76 128/223/119 127/222/118 
f 85/163/76 54/219/50 126/221/117 128/223/119 
f 22/141/22 58/224/54 129/225/120 130/226/121 
f 58/224/54 100/154/91 131/227/122 129/225/120 
f 100/154/91 93/142/84 132/228/123 131/227/122 
f 93/142/84 22/141/22 130/226/121 132/228/123 
f 126/229/117 125/230/116 88/231/79 87/232/78 
f 125/233/116 127/234/118 89/235/80 88/236/79 
f 127/222/118 128/223/119 90/132/81 89/131/80 
f 128/223/119 126/221/117 87/129/78 90/132/81 
f 130/226/121 129/225/120 96/145/87 95/144/86 
f 129/225/120 131/227/122 97/146/88 96/145/87 
f 131/237/122 132/238/123 98/239/89 97/240/88 
f 132/241/123 130/242/121 95/243/86 98/244/89 
f 84/125/75 80/119/71 133/119/124 134/125/125 
f 80/119/71 82/245/73 135/245/126 133/119/124 
f 82/245/73 83/126/74 136/17/127 135/245/126 
f 83/126/74 84/125/75 134/125/125 136/17/127 
f 80/119/71 79/118/70 137/118/124 138/119/125 
f 79/118/70 81/121/72 139/246/126 137/118/124 
f 81/121/72 82/245/73 140/35/127 139/246/126 
f 82/245/73 80/119/71 138/119/125 140/35/127 
f 134/247/125 133/248/124 14/249/14 13/250/13 
f 133/119/124 135/245/126 15/19/15 14/18/14 
f 135/245/126 136/17/127 16/18/16 15/19/15 
f 136/251/127 134/252/125 13/253/13 16/254/16 
f 138/255/125 137/256/124 26/257/14 25/258/13 
f 137/118/124 139/246/126 27/34/15 26/33/14 
f 139/246/126 140/35/127 28/35/16 27/34/15 
f 140/251/127 138/252/125 25/253/13 28/254/16 
# 138 polygons

#
# object Box002
#

v  -276.6701 24.6715 -148.7770
v  -266.4026 25.2435 -149.9613
v  -258.0860 25.2435 -90.6188
v  -267.4064 24.6715 -90.8750
v  -282.1607 56.6524 -106.6369
v  -281.0021 56.6524 -103.3759
v  -272.9021 57.2244 -104.5603
v  -274.0607 57.2244 -107.8212
v  294.7637 23.6184 -146.4578
v  285.9364 23.6184 -92.9416
v  277.0551 24.1635 -92.7048
v  284.9800 24.1635 -147.5524
v  299.9956 54.0927 -107.5096
v  292.2772 54.6378 -108.6042
v  291.1732 54.6378 -105.5903
v  298.8916 54.0927 -104.4956
# 16 vertices

vn -0.5922 -0.3107 -0.7504
vn 0.5017 -0.2118 -0.8312
vn 0.7027 -0.3345 0.6370
vn -0.3993 -0.5528 0.7253
vn -0.8725 0.4892 -0.0580
vn -0.5799 0.5572 0.5868
vn 0.5569 0.7825 0.2875
vn 0.2950 0.8951 -0.3304
vn 0.5819 -0.3164 -0.7411
vn 0.4066 -0.5567 0.7285
vn -0.6971 -0.3370 0.6243
vn -0.5139 -0.2172 -0.8353
vn 0.8716 0.4897 -0.0493
vn -0.2966 0.8934 -0.3409
vn -0.5544 0.7804 0.2834
vn 0.5839 0.5564 0.5986
# 16 vertex normals

vt 0.6156 0.9039 0.0000
vt 0.5833 1.0000 0.0000
vt -0.0000 0.8124 0.0000
vt 0.0416 0.7310 0.0000
vt 0.6117 0.0000 0.0000
vt 0.6457 0.0091 0.0000
vt 0.6388 0.0892 0.0000
vt 0.6047 0.0801 0.0000
vt -0.0000 0.0000 0.0000
vt 0.5932 0.0862 0.0000
vt 0.4004 0.3941 0.0000
vt 0.3652 0.3917 0.0000
vt 0.8998 0.0000 0.0000
vt 0.9905 0.0108 0.0000
vt 0.8204 0.3431 0.0000
vt 0.7416 0.3272 0.0000
vt -0.0000 0.4349 0.0000
vt 0.6111 0.3905 0.0000
vt 0.2194 0.7594 0.0000
vt 0.1841 0.7597 0.0000
vt 0.7034 -0.0000 0.0000
vt 0.7968 0.0394 0.0000
vt 0.6719 0.5602 0.0000
vt 0.5984 0.5278 0.0000
# 24 texture coords

o Box002
g Box002
usemtl wire_115115115
s 2
f 141/259/128 142/260/129 143/261/130 144/262/131 
s 4
f 145/263/132 146/264/133 147/265/134 148/266/135 
s 8
f 141/267/128 144/268/131 146/269/133 145/270/132 
s 16
f 144/271/131 143/272/130 147/273/134 146/274/133 
s 32
f 143/275/130 142/276/129 148/277/135 147/278/134 
s 64
f 142/279/129 141/280/128 145/281/132 148/282/135 
s 2
f 149/259/136 150/262/137 151/261/138 152/260/139 
s 4
f 153/263/140 154/266/141 155/265/142 156/264/143 
s 8
f 149/267/136 153/270/140 156/269/143 150/268/137 
s 16
f 150/271/137 156/274/143 155/273/142 151/272/138 
s 32
f 151/275/138 155/278/142 154/277/141 152/276/139 
s 64
f 152/279/139 154/282/141 153/281/140 149/280/136 
# 12 polygons

